<svg width="24" height="29" viewBox="0 0 24 29" fill="none" xmlns="http://www.w3.org/2000/svg">
<path d="M23.9976 3.75235L22.2846 5.45495C20.0994 3.50809 17.2669 2.43612 14.3341 2.44603C11.4013 2.45594 8.57623 3.54704 6.40435 5.50862L4.63745 3.75006C7.27842 1.33746 10.7327 -0.00115967 14.3175 -0.00115967C17.9023 -0.00115967 21.3567 1.33746 23.9976 3.75006V3.75235Z" fill="#F6F6F6"/>
<path d="M14.3737 4.89198C12.0778 4.88481 9.86004 5.72169 8.146 7.24205L10.1343 9.221C11.3103 8.24971 12.7905 7.71809 14.3187 7.71809C15.8469 7.71809 17.327 8.24971 18.503 9.221L20.543 7.19409C18.8362 5.70565 16.643 4.88723 14.3737 4.89198Z" fill="#F6F6F6"/>
<path d="M22.2846 23.0405C20.1001 24.9884 17.2676 26.0612 14.3346 26.0517C11.4016 26.0422 8.57616 24.9511 6.40435 22.9891L4.63745 24.7499C7.27892 27.1625 10.7336 28.501 14.3187 28.501C17.9038 28.501 21.3584 27.1625 23.9999 24.7499L22.2846 23.0405Z" fill="#F6F6F6"/>
<path d="M18.5007 19.2767C17.3254 20.2487 15.8456 20.7807 14.3175 20.7807C12.7895 20.7807 11.3096 20.2487 10.1343 19.2767L8.146 21.258C9.8547 22.7618 12.0544 23.5962 14.3353 23.6056C16.6163 23.6151 18.8229 22.799 20.5441 21.3093L18.5007 19.2767Z" fill="#F6F6F6"/>
<path d="M7.7559 14.25C7.75264 12.7284 8.28666 11.2539 9.26464 10.0843L7.28205 8.10764C5.7935 9.81013 4.97363 11.9909 4.97363 14.2477C4.97363 16.5046 5.7935 18.6853 7.28205 20.3878L9.26694 18.4123C8.28698 17.245 7.75194 15.7712 7.7559 14.25Z" fill="#F6F6F6"/>
<path d="M5.53926 6.37421L3.77007 4.61337C1.3461 7.24236 0.0012207 10.6807 0.0012207 14.2489C0.0012207 17.817 1.3461 21.2554 3.77007 23.8844L5.54155 22.1213C3.59483 19.9564 2.51849 17.1531 2.51849 14.2477C2.51849 11.3424 3.59483 8.53912 5.54155 6.37421H5.53926Z" fill="#F6F6F6"/>
<path d="M17.203 11.3815C16.5362 10.7199 15.6596 10.3088 14.7225 10.2182C13.7853 10.1276 12.8456 10.3631 12.0633 10.8847C11.2811 11.4062 10.7047 12.1815 10.4323 13.0786C10.1599 13.9756 10.2083 14.9389 10.5694 15.8043C10.9304 16.6698 11.5818 17.384 12.4124 17.8251C13.2431 18.2663 14.2018 18.4073 15.1251 18.224C16.0485 18.0407 16.8795 17.5445 17.4766 16.8199C18.0736 16.0953 18.3998 15.1871 18.3997 14.25C18.3997 13.7168 18.2937 13.1889 18.088 12.6966C17.8822 12.2043 17.5807 11.7574 17.2007 11.3815H17.203Z" fill="#F6F6F6"/>
</svg>
