<svg xmlns="http://www.w3.org/2000/svg" viewBox="0 0 1250 249.58"><g id="Layer_2" data-name="Layer 2"><g id="Layer_1-2" data-name="Layer 1"><path d="M357.11,223.22q-28.14,0-46.65-10.68a67.19,67.19,0,0,1-27.72-30q-9.19-19.34-9.19-45.3,0-28.39,8.65-49.48t27-32.59q18.39-11.49,47.6-11.49a159.37,159.37,0,0,1,27.44,2.16,147.27,147.27,0,0,1,23.13,6V71.24a137.34,137.34,0,0,0-48.68-8.65q-23.53,0-37.32,8.92T301.67,97.2q-6,16.77-5.95,40,0,32.19,15.28,49.63t48.27,17.44A166.27,166.27,0,0,0,384,202.4a115.65,115.65,0,0,0,23.4-6v19.74a161.34,161.34,0,0,1-22.86,5.14A183,183,0,0,1,357.11,223.22Zm116.71,0a57.37,57.37,0,0,1-22.45-4.33,38.3,38.3,0,0,1-16.49-12.84q-6.22-8.52-6.22-21.5,0-17.58,11.62-28.8t37.86-11.23h44.62v-7.84q0-10.55-2.84-16.76T509.24,111q-7.85-2.7-23-2.7a130.19,130.19,0,0,0-22.45,1.89,133.55,133.55,0,0,0-20.28,5.14V96.93A113.46,113.46,0,0,1,464,91.66a148.06,148.06,0,0,1,25.28-2q27.31,0,41,11.09t13.66,36v83.83H525.2l-1.62-14.6a52.94,52.94,0,0,1-20.29,13Q491.4,223.21,473.82,223.22Zm5.68-18.12q14.06,0,24.88-5a54.58,54.58,0,0,0,18.38-13.66V161.56H478.68q-15.14,0-21.63,5.68t-6.49,17.31q0,11.63,7.84,16.09T479.5,205.1Zm96,15.41V92.33h20l1.35,14.61a87.33,87.33,0,0,1,21.77-12.71,65.91,65.91,0,0,1,24.75-4.6q14.33,0,22.31,4.6a27.91,27.91,0,0,1,11.76,13,84.5,84.5,0,0,1,21.09-12.58q11.9-5,28.4-5,21.9,0,32.58,11.22t10.69,34.48v85.18H748.32v-83q0-17-7.17-23.52T718,107.48A58.13,58.13,0,0,0,697.89,111a41.3,41.3,0,0,0-16.36,10.82,67.73,67.73,0,0,1,1.62,15.68v83H662.33V138q0-16.22-5.41-23.39t-21.37-7.16a47.32,47.32,0,0,0-20.68,4.73A70,70,0,0,0,597.42,124v96.54Zm286.81,2.71q-33.54,0-49.76-17.44t-16.22-49.36q0-33.79,18.39-50.3t49.48-16.49a105.51,105.51,0,0,1,21.1,1.76,70.68,70.68,0,0,1,16.22,5.54v17.58q-14.6-7-33.26-7-23.81,0-36.78,11.22t-13,37.72q0,25.43,11.36,37.19t37.59,11.76a82.94,82.94,0,0,0,34.34-7v17.85a86.87,86.87,0,0,1-18,5.27A120.1,120.1,0,0,1,862.33,223.22Zm102.65,0a57.32,57.32,0,0,1-22.44-4.33A38.27,38.27,0,0,1,926,206.05q-6.22-8.52-6.22-21.5,0-17.58,11.63-28.8t37.86-11.23h44.62v-7.84q0-10.55-2.84-16.76T1000.41,111q-7.85-2.7-23-2.7A130.28,130.28,0,0,0,955,110.18a133.55,133.55,0,0,0-20.28,5.14V96.93a113.68,113.68,0,0,1,20.42-5.27,148.1,148.1,0,0,1,25.29-2q27.3,0,41,11.09t13.66,36v83.83h-18.66l-1.62-14.6a53,53,0,0,1-20.28,13Q982.55,223.21,965,223.22Zm5.68-18.12q14.05,0,24.88-5a54.61,54.61,0,0,0,18.39-13.66V161.56H969.85q-15.15,0-21.64,5.68t-6.49,17.31q0,11.63,7.85,16.09T970.66,205.1Zm134.15,18.12a165.62,165.62,0,0,1-23.66-1.62,99.46,99.46,0,0,1-18.79-4.33V197.8a111.14,111.14,0,0,0,19.33,4.87,127.58,127.58,0,0,0,20.15,1.62q17,0,24.34-3.65t7.3-13.66q0-7.3-3.92-11.09t-11.9-6.76q-8-3-20.42-7a196.14,196.14,0,0,1-19.74-7.84A33.5,33.5,0,0,1,1064,143.31q-4.87-6.9-4.87-18.53,0-17,11.9-26.09t38.4-9.06a127.25,127.25,0,0,1,19.74,1.49,120.23,120.23,0,0,1,16.5,3.65v19.47a103.28,103.28,0,0,0-32.72-5.68q-16.77,0-24.21,3.38t-7.43,12.57q0,6.22,3.38,9.87t10.54,6.22q7.17,2.58,18.53,6.36a143.38,143.38,0,0,1,24.06,9.46q9.2,4.88,13.53,11.9t4.32,18.39q0,18.93-13.25,27.72T1104.81,223.22Zm122.2,0q-18.93,0-28.53-10.14t-9.6-28.26V109.91h-19.47V92.33h19.47V60.69l22.18-6.76v38.4h35.42l-1.35,17.58h-34.07v73.83q0,11.63,5.27,16.63t18.26,5a50.62,50.62,0,0,0,15.41-2.7v16.76A64.77,64.77,0,0,1,1227,223.22ZM209.16,32.86,194.23,47.77a103.37,103.37,0,0,0-138.41.47l-15.4-15.4a124.77,124.77,0,0,1,168.74,0Zm-83.88,10A81.2,81.2,0,0,0,71,63.42L88.33,80.75a57.11,57.11,0,0,1,72.94,0L179.05,63A81.33,81.33,0,0,0,125.28,42.84Zm68.95,158.93a103.34,103.34,0,0,1-138.41-.45l-15.4,15.42a124.8,124.8,0,0,0,168.76,0Zm-33-33a57.05,57.05,0,0,1-72.92,0L71,186.16a81.95,81.95,0,0,0,108.06.45Zm-93.65-44A56.84,56.84,0,0,1,80.75,88.31L63.47,71a81.91,81.91,0,0,0,0,107.54l17.3-17.3A56.62,56.62,0,0,1,67.6,124.79Zm-19.32-69L32.86,40.4a124.8,124.8,0,0,0,0,168.76l15.44-15.44a103.39,103.39,0,0,1,0-137.9ZM149.94,99.67h0a35.48,35.48,0,1,0,10.43,25.12A35.42,35.42,0,0,0,149.92,99.67Z"/></g></g></svg>